<svg width="1398" height="382" viewBox="0 0 1398 382" fill="none" xmlns="http://www.w3.org/2000/svg">
<g style="mix-blend-mode:screen">
<path d="M-197.009 77.1905C-152.439 9.09316 -45.2855 -26.5818 57.1262 23.4561C159.607 73.4093 257.143 209.053 358.239 272.604C458.601 335.542 562.341 327.504 666.038 318.808C704.186 314.826 745.874 321.131 786.805 341.13C889.285 391.083 986.821 526.727 1087.92 590.277C1188.95 653.634 1293.4 645.068 1397.79 636.309L1040.58 1080.25L523.919 664.535C515.171 615.576 506.454 566.643 504.917 521.448L310.9 762.578L-205.759 346.862C-223.771 246.064 -241.648 145.373 -197.009 77.1905Z" fill="url(#paint0_linear_27_27)" fill-opacity="0.56"/>
</g>
<defs>
<linearGradient id="paint0_linear_27_27" x1="494.564" y1="979.976" x2="921.626" y2="-26.6131" gradientUnits="userSpaceOnUse">
<stop offset="0.216346" stop-color="#1A1F77"/>
<stop offset="1" stop-color="#B656D8"/>
</linearGradient>
</defs>
</svg>
